<?xml version="1.0" encoding="UTF-8" standalone="no"?>
<svg
   xmlns:dc="http://purl.org/dc/elements/1.1/"
   xmlns:cc="http://creativecommons.org/ns#"
   xmlns:rdf="http://www.w3.org/1999/02/22-rdf-syntax-ns#"
   xmlns:svg="http://www.w3.org/2000/svg"
   xmlns="http://www.w3.org/2000/svg"
   xmlns:sodipodi="http://sodipodi.sourceforge.net/DTD/sodipodi-0.dtd"
   xmlns:inkscape="http://www.inkscape.org/namespaces/inkscape"
   version="1.0"
   width="1280.000000pt"
   height="1280.000000pt"
   viewBox="0 0 1280.000000 1280.000000"
   preserveAspectRatio="xMidYMid meet"
   id="svg3386"
   inkscape:version="0.91 r13725"
   sodipodi:docname="geotool_square.svg">
  <defs
     id="defs3396" />
  <sodipodi:namedview
     pagecolor="#ffffff"
     bordercolor="#666666"
     borderopacity="1"
     objecttolerance="10"
     gridtolerance="10"
     guidetolerance="10"
     inkscape:pageopacity="0"
     inkscape:pageshadow="2"
     inkscape:window-width="1368"
     inkscape:window-height="704"
     id="namedview3394"
     showgrid="false"
     inkscape:zoom="0.3325"
     inkscape:cx="800"
     inkscape:cy="800"
     inkscape:window-x="0"
     inkscape:window-y="27"
     inkscape:window-maximized="1"
     inkscape:current-layer="svg3386" />
  <metadata
     id="metadata3388">
Created by potrace 1.15, written by Peter Selinger 2001-2017
<rdf:RDF>
  <cc:Work
     rdf:about="">
    <dc:format>image/svg+xml</dc:format>
    <dc:type
       rdf:resource="http://purl.org/dc/dcmitype/StillImage" />
    <dc:title></dc:title>
  </cc:Work>
</rdf:RDF>
</metadata>
  <g
     transform="matrix(0,-0.1,-0.1,0,1279.95,1279.95)"
     id="g3390"
     style="fill:#ffeb3b;stroke:none">
    <path
       d="m 74,12790 c -11,-4 -32,-21 -45,-37 L 4,12723 2,6380 C -1,420 0,36 16,19 25,8 45,0 59,0 c 22,0 1151,1124 6381,6355 4490,4490 6356,6362 6358,6379 2,15 -5,33 -17,45 l -21,21 -6332,-1 c -3483,0 -6342,-4 -6354,-9 z m 6876,-2435 c 7,-8 10,-25 6,-38 -3,-14 -950,-966 -2227,-2238 C 2604,5961 2506,5865 2469,5862 l -39,-3 0,2243 c 0,1732 3,2247 12,2256 9,9 524,12 2254,12 1972,0 2243,-2 2254,-15 z"
       id="path3392"
       inkscape:connector-curvature="0" />
  </g>
</svg>
